<?xml version="1.0" standalone="no"?>
<!DOCTYPE svg PUBLIC "-//W3C//DTD SVG 20010904//EN"
 "http://www.w3.org/TR/2001/REC-SVG-20010904/DTD/svg10.dtd">
<svg version="1.0" xmlns="http://www.w3.org/2000/svg"
 width="1280.000000pt" height="1091.000000pt" viewBox="0 0 1280.000000 1091.000000"
 preserveAspectRatio="xMidYMid meet">
<metadata>
Created by potrace 1.15, written by Peter Selinger 2001-2017
</metadata>
<g transform="translate(0.000000,1091.000000) scale(0.100000,-0.100000)"
fill="#000000" stroke="none">
<path d="M8280 10904 c-144 -27 -355 -89 -384 -113 -7 -6 -87 -21 -177 -33
-216 -29 -650 -32 -798 -5 -89 16 -95 16 -130 -2 -20 -10 -47 -22 -61 -26 -30
-9 -247 -129 -460 -255 -190 -112 -365 -199 -485 -240 -49 -16 -99 -34 -110
-39 -11 -5 -62 -21 -114 -36 -295 -81 -394 -220 -378 -529 11 -221 86 -380
205 -437 26 -13 52 -29 58 -37 6 -8 31 -22 55 -31 42 -16 43 -17 56 -81 14
-67 60 -172 130 -296 66 -117 93 -194 93 -266 0 -57 -5 -75 -50 -163 -43 -83
-50 -106 -48 -144 2 -37 -1 -48 -16 -56 -11 -5 -23 -24 -28 -42 -4 -17 -15
-33 -24 -35 -11 -2 -27 -40 -51 -118 -38 -126 -89 -253 -212 -524 -45 -98 -81
-185 -81 -193 0 -8 -23 -40 -51 -71 -158 -176 -231 -416 -231 -759 l-1 -173
-36 -5 c-20 -3 -55 -15 -78 -26 l-42 -21 4 -62 c3 -33 7 -117 10 -186 l5 -124
39 -41 c56 -58 75 -102 110 -263 38 -169 49 -196 131 -327 69 -109 100 -184
100 -242 0 -21 -16 -76 -36 -123 -19 -47 -43 -107 -53 -135 -10 -27 -37 -84
-59 -125 -22 -41 -47 -98 -56 -125 -34 -105 -36 -303 -5 -425 40 -157 138
-365 259 -550 45 -68 93 -148 105 -177 20 -43 29 -53 59 -62 40 -10 54 -24
123 -121 105 -147 155 -209 188 -231 20 -13 88 -94 152 -179 65 -85 152 -191
194 -235 63 -67 89 -105 144 -213 79 -157 138 -227 227 -271 34 -17 69 -31 78
-31 17 0 21 -11 36 -96 l6 -30 -79 -22 c-91 -24 -204 -45 -552 -102 -140 -23
-289 -51 -330 -62 -52 -14 -117 -21 -206 -24 -71 -1 -161 -8 -200 -13 -123
-18 -159 -15 -195 19 -17 16 -59 39 -92 52 -33 12 -86 38 -117 58 -71 46 -239
123 -311 143 -30 9 -75 23 -100 32 -55 20 -82 16 -222 -30 -116 -38 -138 -42
-138 -22 0 26 58 103 114 153 75 67 109 115 140 198 14 37 34 79 45 94 50 72
74 138 131 356 47 181 49 186 100 251 43 54 83 155 100 249 16 97 13 121 -23
173 -19 27 -62 102 -97 168 -78 149 -99 182 -141 222 -34 32 -107 69 -117 59
-10 -11 19 -122 47 -181 17 -33 57 -97 90 -142 104 -143 114 -161 108 -207
-10 -71 -62 -233 -145 -457 -90 -243 -126 -361 -143 -469 l-12 -75 -241 -244
c-303 -306 -462 -452 -547 -501 -98 -58 -180 -123 -270 -214 -86 -86 -119
-137 -119 -185 0 -39 22 -45 76 -22 47 21 104 96 104 137 0 35 159 168 265
221 114 57 109 57 196 23 44 -17 111 -37 150 -45 90 -19 284 -19 459 0 74 9
172 18 217 22 l82 6 55 -42 c31 -23 127 -110 213 -194 319 -308 428 -369 683
-383 234 -14 517 54 785 188 93 47 193 109 309 193 27 19 60 38 74 42 13 3 48
21 76 40 l51 35 93 -7 c52 -3 121 -15 155 -27 54 -17 78 -19 192 -14 177 8
184 5 213 -74 28 -78 61 -123 102 -140 27 -11 33 -11 41 1 21 33 8 94 -42 203
-28 61 -55 115 -60 120 -6 6 -28 4 -59 -6 -44 -14 -52 -15 -65 -1 -21 20 -19
56 4 84 19 23 24 24 163 24 l143 0 42 -46 c23 -25 73 -63 110 -83 37 -20 81
-46 96 -58 31 -25 60 -17 65 19 4 29 -60 103 -120 138 -58 34 -105 92 -88 109
15 15 153 -10 210 -39 27 -14 88 -57 137 -96 113 -91 167 -118 249 -126 l64
-6 0 31 c0 38 -44 92 -104 127 -23 13 -55 38 -70 54 -28 29 -29 33 -18 69 14
46 77 121 136 161 22 15 107 62 187 103 l146 75 139 6 c276 11 432 59 832 258
155 78 282 143 282 146 0 21 -38 67 -64 78 -41 17 -58 13 -192 -49 -56 -25
-110 -46 -121 -46 -11 0 -45 -20 -75 -43 -70 -54 -124 -78 -284 -124 -124 -35
-127 -36 -156 -18 -23 13 -52 18 -117 18 -101 0 -95 3 -400 -172 -107 -61
-219 -120 -250 -131 -31 -11 -76 -28 -101 -37 -29 -11 -73 -44 -127 -95 -75
-72 -85 -78 -123 -78 -68 0 -140 45 -140 87 0 6 24 40 52 75 75 90 459 478
473 478 7 0 20 9 29 19 16 17 16 24 3 72 -7 30 -12 59 -10 66 3 7 57 56 121
110 212 176 436 407 532 549 19 27 83 108 144 179 416 494 849 898 1141 1065
l80 46 6 130 c4 71 12 165 18 209 7 44 11 134 10 200 l-1 119 43 -2 c57 -4
109 -20 138 -41 31 -23 39 -70 46 -256 8 -187 19 -264 47 -319 l20 -39 -23
-19 c-32 -24 -170 -95 -309 -158 -154 -70 -237 -119 -305 -182 l-56 -51 25
-21 c14 -12 30 -34 36 -50 12 -34 -1 -53 -64 -93 -21 -14 -57 -42 -80 -63 -22
-20 -89 -60 -148 -88 -78 -36 -121 -64 -161 -103 -69 -67 -80 -101 -43 -135
14 -14 26 -33 26 -42 0 -11 -48 -47 -133 -102 -169 -108 -268 -183 -335 -254
-45 -48 -51 -59 -42 -76 6 -11 18 -20 27 -20 9 0 51 33 93 74 44 42 142 116
226 171 82 54 172 112 199 130 28 18 66 41 85 50 19 10 64 38 99 62 35 24 82
51 105 60 23 9 154 69 291 133 234 111 351 157 486 194 56 16 74 32 63 60 -9
24 -31 26 -97 11 -131 -30 -251 -79 -527 -213 -229 -112 -310 -141 -310 -114
0 23 104 105 180 142 47 23 192 101 323 173 260 142 246 129 216 204 -12 28
-11 34 6 53 77 85 191 94 410 31 55 -16 112 -32 128 -35 40 -9 36 -47 -9 -88
-34 -31 -36 -36 -31 -78 3 -25 19 -81 36 -123 19 -48 31 -95 31 -125 0 -42 4
-50 35 -75 19 -15 46 -49 59 -75 13 -26 36 -58 51 -72 59 -55 71 -134 22 -158
-12 -6 -90 -25 -173 -41 -290 -58 -583 -140 -989 -276 -399 -134 -577 -200
-586 -217 -6 -11 -4 -21 6 -32 14 -14 33 -9 188 45 843 297 1278 417 1666 459
126 14 233 44 225 64 -3 8 -23 27 -45 42 -40 28 -53 54 -47 95 4 32 28 34 219
19 177 -14 241 -6 296 36 37 28 53 53 64 103 l7 33 -198 -7 c-250 -9 -410 0
-410 24 0 17 -43 105 -132 271 -36 67 -64 136 -78 190 -12 47 -28 95 -36 107
-42 65 -104 94 -229 108 -117 13 -178 63 -191 156 -3 24 1 90 9 146 12 75 14
144 10 266 -6 156 -5 165 14 184 12 12 28 25 38 30 9 5 36 63 59 129 103 289
170 420 272 532 79 88 87 104 86 181 -1 70 -21 147 -92 341 -49 136 -90 291
-90 341 0 33 -13 49 -142 181 -140 143 -180 173 -265 198 -43 13 -43 13 -43
62 0 108 68 169 232 208 155 37 321 45 676 30 l324 -12 28 34 c16 19 103 103
193 186 90 83 190 185 222 226 43 57 78 90 141 131 103 68 150 114 180 179 39
85 31 138 -36 217 -52 61 -80 110 -80 136 0 15 -36 58 -109 130 -93 93 -128
138 -253 328 -80 121 -172 254 -204 295 -121 154 -144 193 -165 274 -6 25 -16
46 -21 46 -31 0 -74 50 -110 129 -70 151 -258 410 -394 543 -174 169 -336 291
-543 407 -223 124 -352 163 -531 159 -261 -5 -1043 37 -1250 67 -135 20 -310
62 -330 79 -19 17 -112 53 -170 66 -50 11 -261 21 -300 14z m330 -123 c36 -13
110 -42 165 -66 201 -87 325 -114 650 -141 243 -20 543 -14 708 14 130 22 194
17 333 -29 97 -32 127 -47 438 -208 156 -81 160 -85 199 -144 48 -75 129 -154
189 -186 40 -22 55 -41 123 -155 156 -261 325 -511 800 -1186 87 -124 218
-314 291 -423 152 -229 151 -221 59 -301 -31 -26 -58 -59 -62 -75 -6 -20 -36
-51 -98 -99 -49 -38 -157 -131 -240 -206 l-150 -136 -175 0 c-96 0 -283 -9
-415 -20 -132 -11 -293 -20 -357 -20 l-117 0 -6 33 c-4 17 1 79 9 136 9 58 16
128 16 157 l0 53 53 15 c121 34 286 43 545 29 117 -6 122 -7 122 -28 0 -14
-19 -39 -51 -68 l-51 -47 -123 -15 c-138 -17 -255 -49 -255 -69 0 -21 74 -46
133 -46 74 0 162 18 229 46 32 13 71 24 87 24 16 0 59 9 96 21 53 16 78 31
116 69 74 74 79 157 13 229 -34 38 -35 39 -171 60 -309 47 -551 53 -714 16
l-77 -18 -4 -81 c-5 -83 -10 -102 -80 -311 -52 -158 -101 -272 -211 -492 l-90
-182 -41 -10 c-23 -5 -61 -17 -86 -26 -61 -23 -160 -17 -220 13 -25 13 -83 57
-130 99 -47 42 -108 91 -137 109 -58 38 -93 78 -93 106 0 12 -11 23 -31 30
-57 20 -222 104 -334 170 -60 36 -143 82 -182 102 -166 83 -584 203 -924 265
-333 61 -485 74 -829 74 -650 -1 -1288 -125 -1944 -379 -17 -7 -18 -3 -11 52
13 108 69 261 229 626 72 164 95 254 105 413 9 129 21 185 41 185 6 0 42 31
81 70 66 64 151 128 258 190 24 14 72 46 107 72 35 26 84 59 109 73 24 15 56
41 71 58 22 26 25 38 21 74 -7 64 -19 73 -98 73 l-69 0 -1 43 c-1 54 -14 89
-69 181 -27 46 -52 76 -62 76 -25 0 -48 -39 -48 -80 0 -20 -6 -45 -14 -56 -14
-18 -16 -18 -56 21 -22 22 -58 64 -78 94 -36 52 -37 56 -43 170 -6 130 -22
176 -65 187 -62 16 -112 -51 -100 -134 8 -56 38 -125 69 -156 13 -13 36 -45
51 -71 16 -26 59 -79 96 -119 37 -39 69 -80 72 -91 3 -17 12 -20 64 -20 71 0
89 -12 116 -73 40 -90 21 -149 -62 -192 -19 -10 -44 -27 -54 -39 -11 -12 -62
-50 -115 -85 -53 -36 -123 -92 -156 -125 -33 -34 -64 -61 -70 -61 -6 0 -26
-11 -45 -25 -19 -14 -37 -25 -42 -25 -28 0 -55 125 -78 360 -25 261 -46 336
-114 408 -33 36 -94 72 -121 72 -9 0 -33 -9 -55 -20 -47 -24 -46 -28 19 -120
73 -103 81 -118 81 -160 0 -29 -7 -48 -28 -71 -27 -30 -30 -31 -58 -18 -63 30
-113 173 -121 350 -7 134 12 329 33 345 8 7 65 33 127 60 62 26 137 64 168 84
31 20 98 51 150 69 131 45 301 130 524 262 105 61 228 132 275 158 l85 46 352
-3 351 -3 22 23 c21 22 26 23 203 24 240 0 238 0 283 31 63 43 204 89 354 117
14 2 81 3 150 2 99 -2 139 -7 190 -25z m-774 -3036 c459 -48 815 -129 1137
-256 83 -33 213 -94 226 -105 2 -2 -10 -25 -27 -53 l-31 -50 55 -50 c31 -28
60 -51 65 -51 5 0 9 -9 9 -20 0 -11 16 -37 35 -59 40 -44 41 -47 19 -55 -10
-4 -24 5 -40 24 -18 20 -46 36 -91 50 -36 11 -69 20 -74 20 -20 0 -7 -33 30
-73 49 -54 61 -78 61 -120 0 -38 19 -59 93 -101 52 -30 59 -51 22 -68 -16 -7
-25 -19 -25 -34 0 -25 37 -49 113 -74 48 -15 97 -56 97 -81 0 -26 -23 -34 -60
-21 -28 10 -30 9 -30 -12 0 -33 19 -53 80 -84 30 -16 56 -36 58 -44 3 -16 -4
-20 -60 -32 -19 -4 -30 -15 -34 -31 -8 -32 8 -52 49 -61 45 -9 101 -39 131
-69 14 -14 35 -25 48 -25 37 0 68 11 68 25 0 23 -42 66 -88 89 -37 19 -43 26
-29 31 9 4 34 4 55 1 117 -19 140 -19 151 2 8 15 7 32 -4 69 -8 26 -15 49 -15
50 0 1 13 9 30 18 33 17 55 53 77 129 20 67 47 110 78 124 42 19 55 15 55 -18
0 -27 2 -29 18 -21 10 5 83 28 163 50 79 21 173 53 209 70 59 28 74 31 166 31
112 0 183 -17 220 -51 44 -41 34 -46 -118 -53 -79 -3 -194 -9 -255 -12 l-113
-7 -39 -42 c-45 -49 -81 -117 -102 -190 -17 -60 -18 -212 -2 -241 7 -11 29
-26 50 -32 73 -22 110 -65 179 -208 64 -134 69 -156 33 -175 -11 -5 -19 -20
-19 -33 0 -20 -9 -27 -44 -39 -63 -22 -71 -10 -62 98 5 66 3 93 -10 125 -24
60 -100 100 -132 68 -21 -21 -13 -46 24 -68 l37 -21 -6 -101 c-7 -109 -1 -133
47 -178 25 -23 29 -23 82 -12 83 17 196 76 218 113 24 41 18 85 -34 221 -22
59 -43 130 -48 159 l-7 53 -75 38 c-85 43 -100 59 -100 102 1 44 24 81 110
180 58 67 79 85 95 81 11 -2 70 -9 130 -15 202 -19 289 -31 301 -41 6 -5 15
-33 18 -62 4 -28 30 -140 58 -247 49 -185 52 -202 52 -325 1 -125 0 -132 -30
-196 -20 -42 -57 -94 -101 -140 -110 -117 -114 -125 -107 -178 6 -46 5 -47
-30 -64 -37 -17 -56 -49 -56 -91 0 -14 -21 -43 -60 -79 -42 -40 -60 -65 -60
-82 l0 -25 -119 0 -119 0 -35 48 c-20 26 -41 60 -48 75 -7 15 -20 27 -31 27
-20 0 -22 6 -19 66 2 35 -6 53 -59 132 -53 78 -63 100 -70 154 -4 35 -27 113
-50 173 -84 218 -118 381 -105 500 5 52 14 76 48 125 33 51 42 72 45 120 4 49
1 61 -17 79 -17 17 -25 19 -42 11 -17 -10 -19 -18 -14 -54 5 -34 2 -52 -15
-82 -38 -70 -64 -109 -91 -135 -38 -37 -53 -138 -46 -304 9 -198 47 -316 212
-644 68 -137 94 -179 133 -216 172 -160 173 -478 3 -812 -57 -111 -67 -124
-151 -189 -275 -213 -533 -470 -868 -864 -484 -569 -976 -944 -1558 -1189
-124 -52 -380 -139 -471 -161 -66 -15 -72 -42 -16 -65 71 -30 66 -55 -10 -55
-94 0 -181 27 -359 109 -102 47 -207 88 -249 97 -102 23 -99 22 -93 37 3 8 -2
32 -11 52 -8 21 -13 40 -10 43 2 2 30 -2 62 -10 57 -14 113 -8 113 12 0 21
-179 139 -318 209 -94 47 -154 108 -303 307 -56 77 -115 150 -129 164 -26 25
-325 416 -412 540 -128 182 -227 396 -270 584 -26 110 -30 348 -9 466 25 140
113 362 169 424 30 33 34 44 29 77 -3 20 -21 64 -41 96 -22 36 -40 80 -45 115
-5 30 -30 104 -54 164 -92 223 -123 368 -114 524 9 142 8 140 81 140 62 0 162
-12 416 -49 212 -31 195 -32 192 8 -5 71 -71 123 -197 156 -50 13 -420 65
-464 65 -12 0 -13 31 -8 188 6 201 22 321 63 472 30 110 90 267 111 292 8 9
21 34 28 55 17 49 93 102 270 189 234 114 517 197 988 289 127 25 242 48 255
50 38 9 26 -28 -25 -76 -27 -25 -113 -99 -193 -166 -177 -147 -188 -158 -174
-181 6 -9 20 -18 30 -20 19 -3 41 15 326 259 104 88 139 113 190 130 111 37
207 50 436 56 l223 6 15 28 c8 16 16 29 18 29 2 0 66 -7 142 -15z m1494 -439
c16 -18 76 -57 132 -87 157 -82 208 -138 208 -224 l0 -36 -51 28 c-28 15 -93
66 -143 113 -51 47 -125 108 -164 135 -40 26 -72 52 -72 57 0 19 26 48 43 48
10 0 31 -15 47 -34z m514 -422 c27 -27 20 -44 -19 -44 -32 0 -35 2 -35 30 0
23 5 30 19 30 11 0 27 -7 35 -16z m-1529 -4625 c4 -6 -87 -105 -202 -222 -115
-117 -228 -237 -251 -268 -50 -66 -95 -93 -252 -149 -140 -50 -201 -83 -245
-131 -31 -35 -55 -91 -55 -131 0 -23 -9 -27 -91 -37 -55 -7 -83 -6 -113 4 -23
7 -52 15 -66 17 -20 2 -26 10 -33 48 -13 71 -3 210 17 250 44 85 95 104 206
75 36 -10 101 -21 145 -26 44 -4 91 -9 104 -11 14 -2 28 4 35 15 9 15 6 22
-16 42 -16 13 -28 29 -28 34 0 12 -52 41 -74 41 -20 0 -66 21 -66 31 0 4 8 15
17 24 14 15 29 16 100 10 l84 -7 38 35 c25 23 66 44 121 62 60 20 95 39 130
70 41 36 69 50 164 80 92 28 134 48 203 95 87 59 116 70 128 49z m-3765 -534
c25 -10 60 -30 78 -44 97 -76 104 -80 158 -87 51 -6 57 -10 81 -47 14 -23 35
-49 47 -59 61 -51 224 -62 423 -28 143 25 151 26 283 39 153 14 273 35 525 91
290 64 401 81 557 83 114 1 130 -1 155 -19 15 -11 28 -25 30 -30 6 -18 -45
-34 -180 -55 -78 -12 -154 -30 -186 -45 -32 -14 -90 -28 -145 -35 -177 -21
-288 -54 -383 -117 -29 -19 -53 -39 -53 -46 0 -29 29 -48 95 -62 71 -15 113
-39 84 -47 -206 -62 -247 -68 -326 -53 -36 6 -43 5 -52 -13 -19 -34 14 -57 95
-66 195 -22 320 10 522 133 l92 56 0 52 c0 88 10 101 77 109 32 4 92 17 133
31 98 31 134 31 167 -2 21 -21 24 -32 20 -61 -9 -55 -33 -82 -100 -115 -34
-16 -82 -42 -107 -57 -25 -15 -126 -62 -225 -105 -449 -195 -530 -220 -710
-220 -66 0 -176 4 -245 8 -118 9 -126 11 -167 42 -23 18 -59 38 -80 44 -51 17
-101 58 -278 230 -82 80 -177 166 -210 190 -33 24 -96 79 -140 121 -81 78
-127 105 -187 111 -28 3 -33 0 -36 -21 -2 -14 6 -33 21 -50 14 -14 29 -38 32
-54 6 -24 3 -29 -26 -41 -62 -25 -212 -39 -357 -33 -116 5 -244 26 -261 42
-10 11 24 54 58 74 21 11 79 31 129 45 50 13 103 31 119 40 15 8 52 27 82 41
30 15 64 34 76 43 18 15 38 16 146 11 85 -4 138 -12 169 -24z"/>
<path d="M7883 10318 c-36 -18 -44 -57 -22 -119 25 -71 83 -283 104 -381 10
-43 20 -78 25 -78 17 0 62 44 79 79 11 20 25 64 31 98 24 119 -19 290 -93 370
-42 45 -76 54 -124 31z"/>
<path d="M8995 10297 c-84 -45 -127 -80 -173 -140 -38 -49 -132 -221 -132
-240 0 -20 -96 -263 -110 -278 -8 -9 -20 -24 -26 -34 -19 -33 -44 -11 -44 37
0 53 -25 257 -39 320 -12 52 -33 116 -56 172 l-16 37 -28 -17 c-16 -10 -40
-36 -53 -58 -21 -38 -23 -54 -28 -246 -5 -201 -5 -206 -32 -252 -16 -26 -28
-60 -28 -76 0 -16 -9 -37 -19 -46 -49 -45 -53 -113 -7 -135 29 -13 31 -13 58
20 16 19 31 45 34 59 9 45 49 115 68 118 31 6 35 -11 19 -87 -17 -83 -10 -115
29 -130 47 -18 131 63 205 198 20 36 40 68 45 71 4 3 18 37 32 75 13 39 43
121 65 184 22 63 51 126 63 140 13 14 64 69 114 122 86 91 134 164 134 202 0
23 -6 22 -75 -16z"/>
<path d="M7018 10212 c-8 -9 -29 -29 -47 -44 -17 -14 -31 -31 -31 -36 0 -25
112 -176 189 -256 47 -48 177 -160 288 -247 111 -87 211 -173 223 -190 15 -20
29 -29 44 -27 19 3 21 9 19 55 -3 66 -29 118 -91 180 -26 26 -72 83 -102 126
-73 107 -212 251 -339 354 -132 105 -134 106 -153 85z"/>
<path d="M6426 10091 c-68 -215 -57 -356 33 -417 33 -22 36 -23 43 -7 3 10 7
81 7 158 1 150 14 199 60 231 20 14 20 14 -2 38 -12 13 -30 35 -40 50 -12 18
-27 26 -47 26 -28 0 -30 -4 -54 -79z"/>
<path d="M10065 9846 c-33 -13 -109 -44 -170 -70 -60 -25 -126 -48 -145 -51
-68 -12 -75 -15 -92 -44 -9 -17 -49 -51 -87 -76 -75 -48 -111 -92 -111 -137 0
-23 4 -28 25 -28 34 0 95 32 175 90 36 26 79 54 95 63 38 19 100 31 114 22 18
-11 -39 -82 -183 -227 -155 -156 -196 -221 -196 -315 l0 -53 53 0 c37 0 70 -9
115 -30 96 -45 99 -44 169 63 71 108 167 215 313 352 183 170 247 225 291 249
29 15 44 29 44 42 0 28 -48 30 -92 4 -20 -12 -59 -30 -87 -40 -27 -11 -86 -44
-130 -75 -45 -30 -96 -58 -114 -61 l-33 -7 21 36 c32 53 104 115 173 148 34
16 68 29 76 29 7 0 11 6 8 13 -3 7 1 24 9 38 21 38 17 54 -21 72 -52 25 -146
21 -220 -7z"/>
<path d="M10840 9734 c-90 -24 -198 -84 -289 -162 -25 -22 -84 -69 -131 -104
-98 -73 -237 -204 -382 -360 -84 -90 -100 -113 -91 -126 24 -39 48 -26 138 78
171 196 436 423 507 434 18 3 105 7 193 10 165 6 257 21 324 56 37 18 91 72
91 90 0 15 -82 67 -133 84 -58 20 -153 20 -227 0z"/>
<path d="M7021 9536 c-54 -65 11 -199 99 -206 71 -6 70 -7 70 74 l0 73 -57 30
c-78 41 -98 46 -112 29z"/>
<path d="M6734 9483 c-10 -16 -30 -64 -45 -108 l-27 -79 36 -23 c47 -28 72
-29 107 -1 63 49 86 168 40 213 -35 36 -87 34 -111 -2z"/>
<path d="M8758 9498 c-46 -12 -120 -76 -142 -122 -9 -19 -16 -52 -16 -75 0
-33 4 -41 18 -41 32 0 118 49 161 93 43 43 107 134 99 142 -10 10 -87 13 -120
3z"/>
<path d="M7262 9403 c2 -23 8 -29 36 -31 30 -3 32 -1 32 27 0 29 -3 31 -36 31
-33 0 -35 -2 -32 -27z"/>
<path d="M8030 9405 l-23 -24 24 -20 c13 -11 29 -20 35 -21 11 0 60 48 53 53
-13 10 -59 37 -62 37 -2 0 -14 -11 -27 -25z"/>
<path d="M9193 9373 c-16 -21 -44 -60 -62 -86 l-33 -48 -86 4 c-48 3 -98 7
-111 8 -14 3 -28 -3 -35 -13 -8 -14 -6 -22 11 -40 18 -17 39 -23 105 -29 46
-4 117 -17 158 -29 l75 -22 27 33 c35 42 58 110 58 173 0 46 -3 53 -31 69 -41
23 -43 23 -76 -20z"/>
<path d="M10855 9384 c-41 -10 -100 -36 -127 -56 -16 -11 -77 -43 -136 -72
-59 -29 -133 -74 -164 -100 -31 -25 -67 -46 -80 -46 -18 0 -28 -10 -43 -42
-16 -34 -39 -56 -110 -105 -125 -84 -152 -138 -92 -177 68 -45 169 -38 362 24
166 54 235 70 292 70 52 0 113 -16 113 -30 0 -13 -115 -69 -227 -109 -206 -74
-273 -123 -273 -201 l0 -40 48 0 c26 0 180 14 342 30 330 34 587 42 710 20 73
-13 74 -13 45 -25 -16 -7 -91 -22 -165 -34 -161 -24 -197 -34 -241 -64 -52
-35 -49 -53 11 -66 76 -16 99 -14 285 25 186 39 304 47 393 25 28 -7 52 -16
52 -20 0 -10 -181 -65 -280 -85 -128 -27 -209 -37 -375 -46 -133 -8 -173 -7
-241 7 -94 18 -160 12 -193 -18 -28 -27 -27 -36 10 -54 45 -24 456 -24 624 -1
208 29 413 81 495 125 19 11 65 26 103 35 114 27 182 73 139 94 -9 5 -41 18
-71 28 -79 28 -101 52 -101 112 l0 50 -92 11 c-283 35 -614 42 -764 15 -49 -9
-113 -19 -143 -23 -58 -9 -135 2 -158 21 -12 10 -9 15 20 30 123 62 359 135
570 174 78 15 145 30 150 33 17 16 -26 102 -71 141 -70 62 -126 75 -322 74
-137 0 -198 -6 -360 -33 -209 -35 -350 -51 -350 -40 0 38 256 183 378 215 92
24 210 100 188 121 -8 9 -123 14 -151 7z"/>
<path d="M11694 8206 c-37 -76 18 -124 171 -150 120 -21 306 -39 314 -31 3 4
6 31 6 60 0 108 -78 146 -317 153 l-157 4 -17 -36z"/>
<path d="M10380 8105 c-17 -21 6 -53 87 -120 160 -133 188 -147 188 -96 0 19
-21 40 -90 93 -49 38 -104 84 -122 103 -36 39 -45 42 -63 20z"/>
<path d="M10185 7918 c11 -35 46 -67 83 -74 29 -6 32 -4 26 12 -11 30 -37 56
-71 70 -43 18 -45 18 -38 -8z"/>
<path d="M10507 7713 c-24 -23 19 -73 62 -73 16 0 34 7 42 16 11 13 8 19 -17
39 -28 23 -73 33 -87 18z"/>
<path d="M10314 7375 c-3 -14 -3 -36 0 -50 5 -21 12 -25 45 -25 41 0 56 16 40
41 -5 8 -9 24 -9 37 0 18 -5 22 -35 22 -29 0 -36 -4 -41 -25z"/>
<path d="M7170 7559 c-155 -53 -300 -125 -423 -208 -122 -84 -273 -213 -282
-241 -7 -23 10 -50 30 -50 8 0 55 36 107 81 118 101 288 216 398 268 108 50
232 91 279 91 41 0 94 29 111 60 9 17 7 22 -15 30 -44 17 -85 11 -205 -31z"/>
<path d="M7130 7371 c-224 -74 -375 -174 -591 -391 -86 -86 -160 -167 -164
-179 -7 -23 9 -51 30 -51 6 0 52 44 100 98 227 250 441 398 673 465 94 27 123
47 102 71 -18 22 -53 19 -150 -13z"/>
<path d="M7295 7194 c-347 -149 -430 -196 -505 -282 -43 -50 -80 -134 -80
-181 l0 -29 162 65 c187 75 280 120 361 174 l57 39 186 20 c205 22 284 25 284
10 0 -5 18 -15 40 -21 30 -9 42 -19 47 -38 3 -14 12 -35 19 -47 18 -27 91 -67
99 -54 3 5 19 10 36 10 26 0 29 3 29 31 0 39 -29 87 -70 117 -40 30 -70 79
-70 117 0 26 -8 34 -59 63 -73 39 -92 40 -156 2 -68 -40 -111 -40 -133 2 -25
46 -49 68 -74 67 -13 -1 -90 -30 -173 -65z"/>
<path d="M6334 6959 c-23 -37 -24 -43 -11 -57 21 -20 44 -9 63 32 34 70 -10
91 -52 25z"/>
<path d="M10769 6503 c-17 -48 -15 -153 4 -218 57 -200 69 -255 70 -325 0 -53
-5 -85 -17 -109 -20 -37 -100 -121 -160 -165 -24 -18 -48 -49 -63 -83 -22 -47
-25 -65 -21 -127 3 -39 12 -88 21 -108 14 -33 20 -38 50 -38 45 0 84 32 96 78
5 20 12 88 15 151 7 114 7 115 44 159 20 24 46 57 57 72 11 16 29 30 40 32 11
2 30 21 43 46 59 106 28 383 -63 562 -22 43 -80 110 -96 110 -4 0 -13 -17 -20
-37z"/>
<path d="M7246 6185 c-136 -35 -276 -145 -359 -283 -51 -85 -55 -115 -16 -127
27 -9 43 7 89 85 74 126 136 169 310 215 58 15 126 38 151 50 47 24 76 51 66
61 -14 14 -184 13 -241 -1z"/>
<path d="M8297 6119 c-50 -12 -107 -42 -132 -69 -20 -22 -20 -22 0 -37 30 -22
156 -13 218 17 56 26 111 75 102 90 -7 12 -135 12 -188 -1z"/>
<path d="M7470 5983 c-110 -48 -165 -82 -255 -159 -112 -96 -129 -107 -219
-134 -67 -21 -90 -39 -100 -81 -5 -22 -2 -28 17 -33 24 -6 69 4 103 22 10 6
48 24 84 40 36 16 94 55 130 86 155 134 229 176 312 176 40 0 94 25 107 48 23
43 -104 68 -179 35z"/>
<path d="M6548 5905 c-14 -8 -37 -32 -50 -52 -67 -109 16 -330 148 -393 48
-24 110 -21 120 4 3 8 -24 72 -59 142 -61 122 -102 230 -109 283 -4 30 -16 34
-50 16z"/>
<path d="M5877 5763 c-13 -13 -7 -64 13 -104 35 -68 19 -72 -132 -33 -116 30
-176 28 -212 -5 -12 -11 -35 -21 -50 -21 -81 0 -166 -90 -166 -175 0 -31 3
-36 21 -33 14 2 27 19 42 58 18 46 29 59 64 76 106 54 367 10 453 -76 38 -38
70 -124 53 -141 -5 -5 -83 -20 -174 -33 -98 -15 -192 -35 -230 -49 -35 -14
-77 -29 -93 -33 -36 -11 -64 -55 -72 -115 l-6 -44 44 -17 c66 -26 166 -15 218
23 14 11 51 22 87 25 112 12 115 -14 20 -204 -75 -152 -80 -190 -43 -342 15
-60 26 -134 26 -173 l0 -67 -57 -55 c-31 -30 -62 -55 -70 -55 -8 0 -13 -12
-13 -30 0 -43 -23 -94 -64 -142 -20 -23 -40 -56 -46 -74 -10 -30 -8 -38 19
-78 39 -56 325 -330 350 -334 10 -2 23 4 30 12 10 12 10 21 -3 43 -8 15 -17
41 -21 57 -3 16 -34 58 -69 95 -86 90 -90 100 -58 125 24 19 41 21 185 22 128
0 161 3 167 15 5 8 44 62 88 121 88 118 117 179 117 251 l0 47 50 16 c28 9 67
25 88 36 21 11 51 18 65 16 24 -3 27 -6 24 -38 -2 -19 -12 -46 -21 -60 -50
-71 -36 -85 81 -84 75 1 132 11 283 47 105 26 206 49 226 52 27 4 63 30 160
117 68 61 157 137 197 169 71 56 74 57 125 53 29 -3 102 -1 164 4 123 10 205
3 254 -22 67 -34 82 41 24 118 -41 53 -42 53 -205 32 -139 -18 -159 -14 -203
39 -42 50 -71 58 -118 33 -61 -33 -115 -24 -234 37 -93 48 -115 55 -164 55
-31 0 -63 -4 -71 -10 -23 -14 43 -68 143 -117 92 -45 167 -104 167 -132 0 -9
-13 -38 -29 -63 -55 -86 -151 -123 -428 -162 -98 -15 -205 -33 -238 -41 -93
-24 -90 -25 -87 15 6 65 37 81 222 115 114 21 153 36 188 73 15 15 40 35 55
45 15 10 30 24 33 31 3 7 -14 52 -37 100 -65 134 -115 177 -141 121 -9 -21 -7
-37 17 -97 38 -97 39 -144 3 -171 -26 -20 -32 -20 -107 -8 -90 15 -139 11
-293 -26 l-108 -25 0 -31 c0 -17 12 -48 27 -69 32 -46 28 -51 -58 -81 -50 -17
-81 -21 -141 -19 -78 4 -78 4 -78 32 0 15 -7 33 -15 40 -17 15 -55 4 -55 -16
0 -12 -14 -14 -72 -12 l-73 3 -30 60 c-28 56 -30 68 -30 170 0 129 10 164 117
409 139 317 155 433 83 595 -24 53 -33 62 -87 90 -62 32 -79 36 -91 24z m-257
-637 c0 -29 -17 -44 -58 -52 -29 -6 -32 -4 -32 17 0 40 20 57 68 58 17 1 22
-5 22 -23z m482 -871 c-6 -53 -48 -128 -112 -200 -34 -38 -68 -82 -76 -96 -12
-23 -22 -28 -74 -34 -34 -4 -64 -4 -68 0 -4 4 -8 64 -10 134 l-4 127 99 46
c115 55 121 57 193 55 55 -2 55 -2 52 -32z"/>
<path d="M8207 5760 c-54 -10 -62 -14 -52 -29 25 -41 202 -86 306 -79 65 5
119 27 119 48 0 14 -121 48 -212 60 -91 11 -93 11 -161 0z"/>
<path d="M7614 5700 c-66 -54 -120 -78 -237 -103 -75 -17 -103 -27 -114 -43
-12 -19 -11 -24 5 -44 l19 -23 89 17 c149 30 246 74 306 139 33 36 36 72 9 87
-26 14 -23 15 -77 -30z"/>
<path d="M8100 4856 c0 -29 8 -38 79 -89 66 -48 84 -67 108 -114 27 -56 28
-65 29 -213 2 -146 13 -232 33 -245 5 -3 27 15 48 39 211 240 67 609 -254 649
-43 5 -43 5 -43 -27z"/>
<path d="M7600 4469 c-122 -93 -315 -179 -660 -293 -173 -57 -351 -118 -395
-136 -127 -50 -284 -135 -364 -195 -40 -31 -86 -62 -101 -70 -46 -24 -75 -73
-75 -127 0 -25 3 -49 7 -53 4 -4 28 3 53 15 33 16 53 35 72 68 37 65 58 87
133 136 152 101 260 146 690 288 398 133 534 193 693 310 66 49 73 60 61 92
-11 27 -47 16 -114 -35z"/>
<path d="M9530 4229 c0 -11 -11 -39 -24 -62 -17 -29 -24 -57 -24 -92 0 -197
-220 -428 -549 -575 -115 -51 -135 -69 -117 -97 18 -28 61 -20 177 35 318 150
503 333 561 555 8 31 24 65 35 76 24 24 41 81 41 139 l0 42 -50 0 c-44 0 -50
-3 -50 -21z"/>
<path d="M6127 3383 c-15 -24 -37 -174 -37 -247 0 -213 81 -392 217 -481 32
-21 84 -55 116 -76 66 -43 185 -91 272 -110 86 -18 245 -15 339 5 256 57 504
205 843 503 190 167 207 185 199 217 -13 51 -48 35 -179 -83 -352 -316 -582
-466 -822 -537 -75 -22 -111 -27 -215 -28 -141 -1 -216 17 -342 80 -162 81
-196 145 -269 501 -22 107 -44 203 -48 212 -12 20 -68 54 -74 44z"/>
<path d="M2725 5561 c-110 -32 -240 -73 -290 -91 -200 -71 -436 -217 -443
-272 -5 -39 24 -44 65 -11 111 89 238 159 395 219 79 30 462 144 484 144 5 0
22 -11 37 -25 24 -23 27 -33 27 -87 0 -51 -5 -69 -31 -110 -74 -114 -259 -208
-463 -233 -32 -4 -57 -13 -60 -21 -3 -8 8 -30 25 -49 54 -61 32 -101 -163
-303 -129 -133 -152 -162 -128 -162 17 0 59 -103 65 -160 19 -171 53 -340 101
-507 8 -29 19 -29 81 3 64 31 100 84 142 212 16 51 39 105 49 120 11 15 27 52
36 82 32 98 58 143 91 152 78 23 574 -18 681 -55 91 -33 413 -219 487 -283 48
-40 162 -98 177 -89 15 9 12 52 -5 84 -20 40 -67 76 -149 118 -39 19 -109 63
-156 97 -123 91 -260 180 -295 194 -47 19 -125 31 -272 43 -76 6 -146 16 -158
22 -13 8 -74 12 -173 12 l-154 0 -43 -40 c-36 -33 -51 -61 -90 -160 -26 -66
-53 -123 -59 -127 -6 -4 -30 -8 -52 -8 -56 0 -88 27 -114 98 -12 31 -30 72
-41 90 -34 58 -26 83 40 135 33 25 99 92 147 149 198 232 318 332 442 369 31
9 47 20 53 37 5 14 26 51 45 83 32 51 35 63 30 101 -4 24 -10 75 -14 113 -5
39 -14 80 -21 93 -15 28 -88 82 -110 81 -9 0 -106 -26 -216 -58z"/>
<path d="M1151 5577 c-5 -13 -20 -31 -34 -40 -14 -9 -47 -49 -74 -89 -27 -40
-72 -95 -102 -123 -91 -85 -134 -182 -106 -239 18 -36 4 -60 -31 -52 -26 7
-22 28 -50 -264 -19 -196 -15 -433 10 -525 9 -33 48 -121 86 -197 39 -76 70
-149 70 -165 0 -58 -42 -69 -98 -25 -20 15 -49 34 -66 42 -30 15 -62 81 -135
280 -36 98 -46 115 -98 177 -36 43 -46 63 -54 112 -11 72 -35 131 -85 208 -20
31 -50 83 -66 115 -18 36 -36 58 -46 58 -9 0 -49 12 -89 26 -100 36 -135 30
-150 -28 -6 -24 -8 -47 -3 -53 5 -6 1 -39 -8 -75 -26 -104 -23 -328 7 -459 51
-234 185 -521 364 -785 22 -33 49 -83 59 -110 24 -64 58 -100 107 -115 30 -8
59 -35 133 -119 53 -59 102 -122 111 -138 9 -17 48 -57 87 -88 38 -31 77 -67
85 -79 21 -32 161 -442 197 -576 25 -97 29 -125 24 -182 -9 -87 7 -156 85
-362 80 -212 91 -250 92 -319 0 -76 -17 -100 -107 -143 -104 -51 -223 -151
-319 -267 -45 -55 -111 -127 -146 -161 -66 -64 -111 -141 -111 -190 0 -25 3
-27 23 -22 57 18 107 57 146 117 23 35 59 83 80 108 21 25 63 74 93 110 71 85
172 169 257 214 77 40 91 43 91 19 0 -16 -29 -45 -249 -257 -90 -87 -141 -161
-141 -206 0 -31 44 -26 80 10 33 32 70 46 96 36 15 -6 16 -21 9 -135 -7 -139
-3 -159 41 -187 19 -13 28 -14 37 -5 6 6 23 11 38 11 43 0 59 62 59 229 0 198
18 253 142 437 l75 111 -8 63 c-13 92 -33 163 -98 343 -77 210 -87 246 -111
402 -21 135 -98 429 -151 582 -70 199 -174 348 -301 431 -72 47 -288 271 -288
299 -1 23 -25 52 -74 88 -93 69 -311 459 -390 697 -55 165 -69 260 -63 428 3
80 11 162 18 183 11 32 16 37 45 37 25 0 40 -9 69 -41 46 -51 63 -90 110 -244
20 -66 48 -146 62 -178 28 -61 85 -120 137 -142 28 -12 39 -28 79 -123 26 -60
47 -118 47 -129 0 -16 -14 -24 -67 -40 -71 -21 -97 -43 -75 -65 9 -9 27 -8 86
6 68 17 77 18 121 3 70 -24 223 -160 250 -222 32 -76 30 -81 -37 -126 -77 -53
-108 -85 -108 -114 0 -36 27 -38 57 -5 25 29 139 112 189 138 16 9 93 17 222
22 108 5 217 12 242 16 47 6 100 29 100 43 0 20 -86 34 -233 38 l-157 5 -29
42 c-15 22 -38 61 -51 86 -41 82 -93 152 -134 182 -28 20 -53 54 -87 119 -62
117 -69 175 -69 603 l0 325 24 46 c14 25 41 67 60 94 40 54 79 137 91 191 10
48 68 142 111 179 38 34 67 38 140 20 65 -17 79 -43 78 -149 0 -73 -34 -286
-49 -311 -3 -4 -32 -24 -65 -44 -64 -39 -75 -55 -35 -55 30 0 45 -26 45 -79 0
-29 6 -46 20 -58 19 -16 20 -30 20 -223 0 -203 0 -207 -23 -228 -16 -15 -36
-22 -63 -22 -41 0 -73 -14 -61 -26 4 -4 33 -6 65 -5 55 2 62 0 118 -43 90 -68
147 -142 263 -344 37 -64 74 -127 82 -139 13 -22 19 -23 154 -23 111 0 156 -4
214 -20 108 -30 218 -88 255 -134 41 -51 103 -86 138 -79 38 7 51 25 39 56
-13 34 -56 64 -189 131 -141 71 -239 104 -331 112 -145 14 -231 109 -281 311
-19 78 -60 401 -60 474 0 87 73 214 209 362 70 76 80 90 71 107 -19 35 -46 22
-131 -67 -149 -155 -213 -273 -229 -423 -10 -96 -37 -220 -51 -237 -15 -18
-41 -16 -83 4 l-36 17 4 245 c3 135 9 273 15 306 6 33 8 78 5 100 -2 22 4 87
15 145 30 159 33 200 20 260 -7 30 -12 70 -11 88 0 23 -6 37 -21 47 -33 21
-135 45 -194 45 -47 0 -55 -3 -62 -23z"/>
<path d="M2930 4165 c0 -41 16 -62 75 -99 43 -28 56 -43 64 -73 25 -89 11
-110 -101 -158 -68 -29 -98 -55 -63 -55 27 0 110 -86 137 -142 14 -29 44 -125
67 -213 57 -219 74 -252 163 -312 43 -28 141 -75 239 -114 258 -103 241 -89
321 -257 37 -79 88 -174 112 -211 77 -119 193 -222 233 -207 13 5 15 18 9 72
-9 91 -35 153 -116 280 -84 131 -99 171 -77 205 9 13 28 55 42 94 15 38 34 81
42 96 15 26 17 26 59 13 23 -7 52 -22 63 -33 12 -12 30 -21 41 -21 34 0 80 29
80 50 0 23 -50 35 -111 27 -119 -16 -193 83 -226 299 -13 93 -14 127 -4 229 6
66 18 145 26 175 8 30 13 55 12 56 -1 1 -37 8 -79 15 -125 21 -122 26 -119
-177 3 -261 16 -372 56 -489 19 -56 35 -116 35 -134 0 -46 -27 -97 -65 -127
l-33 -25 -49 31 c-27 17 -122 59 -212 95 -89 35 -187 78 -216 96 l-53 32 5 57
c8 81 -11 173 -69 345 -62 181 -69 259 -29 338 32 65 56 79 138 79 81 0 151
-24 222 -76 54 -40 81 -46 81 -17 0 27 -64 79 -140 115 -58 27 -76 30 -166 31
l-102 1 -77 49 c-77 48 -119 66 -182 80 -31 6 -33 5 -33 -20z"/>
<path d="M4126 3978 c-20 -29 -20 -65 -1 -76 9 -5 35 -4 60 2 39 9 45 14 45
37 0 54 -74 80 -104 37z"/>
<path d="M10398 3420 c-42 -10 -116 -35 -165 -54 -48 -20 -158 -61 -243 -92
-168 -61 -180 -67 -180 -95 0 -42 30 -39 200 23 161 59 251 80 263 61 4 -5
-38 -29 -91 -53 -625 -279 -1233 -679 -1905 -1254 -109 -93 -128 -114 -125
-135 6 -49 34 -36 166 76 688 589 1299 990 1917 1258 61 26 119 54 130 61 11
7 72 28 135 47 64 19 133 42 155 51 42 18 105 62 105 75 0 4 -17 16 -37 26
-57 28 -224 31 -325 5z"/>
<path d="M12050 3301 c0 -22 -66 -84 -119 -111 -31 -15 -122 -46 -204 -69
-167 -47 -237 -76 -286 -118 l-35 -30 22 -31 c12 -16 43 -41 70 -54 46 -22 53
-23 283 -20 l237 2 31 -36 c36 -40 75 -64 108 -64 16 0 24 9 33 35 20 60 13
134 -24 262 -20 67 -36 144 -36 171 0 43 -3 50 -22 55 -13 2 -31 8 -40 12 -11
4 -18 3 -18 -4z"/>
<path d="M1325 3264 c-21 -21 -19 -31 12 -57 109 -90 205 -203 252 -294 21
-43 22 -43 76 -43 47 0 72 -8 163 -54 59 -29 116 -56 127 -60 11 -3 88 -72
171 -153 106 -104 170 -176 213 -240 35 -51 80 -108 102 -128 40 -36 87 -60
97 -50 13 12 -20 136 -54 205 -52 104 -179 230 -341 338 -68 45 -135 85 -150
88 -16 4 -76 31 -134 60 -87 43 -110 60 -129 91 -71 121 -152 193 -301 268
-79 40 -90 43 -104 29z"/>
<path d="M2410 3189 c-13 -5 -31 -16 -40 -24 -8 -7 -55 -20 -103 -28 -96 -17
-120 -29 -115 -61 4 -25 14 -25 143 -2 50 9 136 16 193 16 l102 0 0 35 c0 26
-6 39 -26 52 -31 20 -119 27 -154 12z"/>
<path d="M9020 2790 c0 -24 26 -38 42 -22 8 8 8 15 -2 27 -18 21 -40 19 -40
-5z"/>
<path d="M9900 2644 c-217 -65 -449 -154 -730 -284 -129 -59 -145 -69 -148
-92 -2 -19 3 -30 18 -38 17 -9 42 -1 153 49 323 146 531 227 736 285 119 34
145 51 125 84 -16 25 -59 24 -154 -4z"/>
<path d="M2986 1963 c24 -98 70 -187 123 -237 26 -25 31 -37 31 -77 0 -26 3
-50 8 -52 4 -3 27 -7 52 -8 45 -4 45 -4 54 33 11 42 -4 88 -28 88 -7 0 -17 11
-20 25 -29 114 -85 199 -157 236 -55 28 -71 25 -63 -8z"/>
<path d="M2895 870 c-41 -25 -316 -122 -499 -175 -209 -61 -376 -100 -541
-125 -177 -27 -189 -31 -193 -56 -6 -39 16 -44 128 -28 275 38 629 130 955
247 101 37 184 61 189 57 5 -5 -24 -44 -69 -92 -106 -113 -187 -215 -231 -294
-37 -67 -76 -173 -67 -186 12 -21 112 -7 203 28 l95 36 33 91 c34 92 132 296
190 395 17 28 26 52 20 52 -6 0 -42 16 -79 35 -76 39 -91 41 -134 15z"/>
<path d="M566 497 c-25 -102 -9 -254 42 -407 l29 -85 60 -3 c56 -3 63 -1 82
24 24 30 27 85 12 191 -11 73 0 126 30 146 19 14 18 15 -17 21 -24 5 -54 24
-89 56 -45 44 -106 80 -134 80 -5 0 -11 -10 -15 -23z"/>
</g>
</svg>
