 <svg  version="1.0" xmlns="http://www.w3.org/2000/svg"  width="300.000000pt" height="233.000000pt" viewBox="0 0 300.000000 233.000000"  preserveAspectRatio="xMidYMid meet">  <g transform="translate(0.000000,233.000000) scale(0.050000,-0.050000)" fill="#ffffff" stroke="none"> <path d="M712 4503 c-15 -25 143 -483 180 -522 80 -84 74 18 -15 273 -85 242 -129 308 -165 249z"/> <path d="M1128 4233 c-32 -84 -19 -223 22 -223 35 0 40 13 40 118 0 116 -35 175 -62 105z"/> <path d="M545 4107 c-43 -17 -27 -53 74 -167 93 -103 101 -108 133 -76 38 38 -154 263 -207 243z"/> <path d="M963 3823 c-23 -15 81 -844 149 -1188 22 -111 75 -60 446 436 418 558 404 509 182 627 -213 114 -676 188 -777 125z m477 -107 c218 -53 375 -148 335 -202 -24 -33 -33 -32 -149 26 -139 70 -376 125 -495 117 -86 -7 -127 46 -68 87 31 20 242 5 377 -28z m-61 -180 l103 -23 -65 -22 c-135 -44 -153 -209 -30 -268 123 -59 249 71 187 195 l-30 59 69 -32 c81 -39 81 -41 -65 -234 -112 -150 -113 -151 -189 -139 -136 22 -212 -90 -147 -215 27 -54 28 -66 3 -91 -25 -25 -32 -5 -54 156 -24 174 -23 187 12 211 76 52 87 70 87 136 0 73 -73 151 -141 151 -25 0 -37 20 -43 70 l-8 70 104 0 c58 0 151 -11 207 -24z m111 -186 c0 -60 -78 -54 -87 7 -5 38 2 45 40 40 31 -5 47 -20 47 -47z m-317 -61 c18 -46 -29 -88 -54 -49 -10 17 -19 41 -19 55 0 36 59 31 73 -6z m168 -358 c-14 -17 -34 -31 -43 -31 -28 0 -21 76 7 86 41 15 64 -21 36 -55z"/> <path d="M2650 2960 c-7 -11 -33 -20 -58 -20 -75 0 -307 -180 -559 -435 -234 -237 -239 -240 -343 -251 -200 -20 -285 -134 -101 -134 l90 0 -110 -161 c-111 -164 -128 -212 -85 -255 50 -50 90 -16 234 199 l149 222 170 -13 c211 -16 202 10 86 -238 -55 -116 -95 -215 -90 -220 19 -20 157 26 183 60 63 84 506 1038 535 1151 20 81 -62 158 -101 95z m-222 -449 l-133 -276 -102 12 c-57 7 -124 13 -150 13 -46 0 -45 1 19 83 65 82 480 461 492 449 4 -3 -53 -130 -126 -281z"/> <path d="M2948 2736 c-496 -457 -603 -1354 -123 -1027 l65 43 53 -56 c62 -66 115 -70 231 -17 72 33 87 34 107 9 116 -140 578 239 579 475 1 271 -486 71 -590 -242 -37 -114 -117 -174 -202 -152 -77 19 -64 110 31 219 451 522 599 832 398 832 -154 0 -577 -629 -577 -858 0 -47 -131 -178 -195 -195 -161 -42 -143 88 42 310 403 485 519 743 332 743 -42 0 -86 -24 -151 -84z m112 -63 c0 -26 -244 -390 -346 -515 l-55 -68 41 108 c44 113 63 145 225 367 96 131 135 163 135 108z m373 -67 c-48 -92 -336 -490 -346 -479 -29 28 159 348 298 506 69 78 95 63 48 -27z m280 -509 c-31 -120 -280 -360 -337 -324 -63 38 56 252 202 363 99 74 160 57 135 -39z"/> <path d="M4087 2270 c-55 -38 -353 -544 -337 -570 16 -25 104 -26 113 -2 14 39 284 341 356 399 l77 62 -22 -58 c-34 -91 14 -139 79 -78 210 197 98 373 -125 196 -91 -73 -96 -73 -59 -2 43 84 0 111 -82 53z"/> <path d="M4666 2218 c-284 -140 -421 -558 -183 -558 52 0 237 111 237 142 0 10 10 18 21 18 12 0 16 -17 10 -37 -22 -68 57 -132 154 -125 66 4 195 141 195 206 l0 59 -93 -82 c-162 -142 -182 -43 -45 221 45 86 76 166 69 177 -17 27 -77 27 -105 -1 -15 -15 -25 -15 -35 0 -22 35 -134 25 -225 -20z m194 -79 c-59 -110 -346 -379 -374 -351 -45 45 157 296 284 355 103 47 116 46 90 -4z"/> <path d="M1094 1489 c-178 -35 -346 -113 -439 -204 -158 -154 -47 -314 148 -214 62 32 62 58 1 59 -143 1 151 181 395 242 252 63 481 -7 481 -147 0 -118 -281 -315 -482 -339 -128 -15 -127 -9 41 249 143 220 150 259 44 236 -68 -15 -277 -295 -578 -774 -190 -302 -201 -342 -90 -333 71 6 80 15 235 259 193 306 175 288 239 246 230 -151 849 276 783 540 -43 171 -403 255 -778 180z"/> <path d="M4850 1352 c-327 -103 -653 -446 -709 -745 -53 -288 180 -412 480 -254 60 31 116 60 124 64 8 3 15 -11 15 -32 0 -55 63 -105 133 -105 210 0 602 507 447 580 -16 7 -50 24 -75 37 -99 51 -176 12 -408 -206 -448 -421 -766 -365 -503 89 121 207 532 513 636 473 62 -24 -146 -253 -230 -253 -53 0 -54 -71 -1 -99 110 -60 401 195 401 351 0 113 -133 156 -310 100z m369 -655 c-38 -92 -242 -297 -295 -297 -113 0 9 250 177 363 106 71 162 40 118 -66z"/> <path d="M1969 1131 c-55 -55 -63 -107 -21 -123 70 -27 176 89 131 143 -33 40 -53 36 -110 -20z"/> <path d="M1774 858 c-51 -42 -73 -75 -69 -105 3 -24 -30 -111 -73 -194 -139 -268 33 -414 256 -218 66 58 66 58 57 10 -16 -85 39 -92 329 -41 305 53 306 53 306 134 0 53 -5 59 -45 48 -124 -36 -401 -92 -411 -83 -15 16 272 292 381 368 89 61 117 107 79 131 -31 18 -454 -33 -499 -61 -100 -62 -57 -93 110 -78 l155 13 -70 -54 c-38 -30 -126 -112 -195 -182 -114 -117 -125 -124 -125 -77 0 66 -10 65 -103 -19 -181 -164 -198 -78 -38 194 152 261 132 360 -45 214z"/> <path d="M2945 892 c-162 -19 -210 -31 -234 -63 -51 -67 -36 -74 124 -60 l155 14 -90 -81 c-49 -44 -96 -81 -104 -81 -83 -5 -237 -321 -169 -347 37 -14 490 64 556 96 50 23 55 22 66 -23 29 -114 167 -100 319 34 l72 63 0 -59 c0 -186 318 -119 336 71 8 81 -3 80 -100 -7 -149 -135 -163 -39 -32 228 84 171 82 229 -7 182 -22 -13 -53 -11 -86 4 -116 53 -365 -99 -454 -276 -37 -74 -60 -98 -98 -100 -27 -1 -130 -21 -228 -44 -99 -22 -183 -37 -188 -33 -23 24 316 349 413 395 57 28 53 104 -6 108 -22 1 -132 -8 -245 -21z m728 -228 c-91 -118 -252 -264 -291 -264 -91 0 104 274 248 349 126 65 139 39 43 -85z"/> <path d="M5204 376 c-39 -39 -30 -116 13 -116 45 0 103 60 103 107 0 39 -79 46 -116 9z"/> </g> </svg> 